<svg xmlns="http://www.w3.org/2000/svg" width="540" height="320" viewBox="0 0 540 320"><rect width="100%" height="100%" fill="#DDDDDD"/><path fill="#999999" d="M146.45 140.635h-25.04v15.64h19.74v8.07h-19.74v15.96h25.04v8.38h-35.57v-56.39h35.57v8.34Zm17.39 48.05h-9.63v-40.01h5.89q1.87 0 2.46 1.75l.62 2.96q1.05-1.17 2.2-2.14 1.15-.97 2.46-1.68 1.31-.7 2.81-1.11 1.5-.41 3.29-.41 3.79 0 6.22 2.05 2.44 2.05 3.65 5.44.94-1.99 2.34-3.41 1.41-1.43 3.08-2.32 1.68-.9 3.57-1.33 1.89-.43 3.8-.43 3.32 0 5.89 1.02 2.58 1.01 4.33 2.96 1.76 1.95 2.67 4.76.92 2.81.92 6.43v25.47h-9.63v-25.47q0-3.82-1.68-5.75-1.68-1.93-4.91-1.93-1.49 0-2.75.51-1.27.5-2.23 1.46-.95.95-1.5 2.4-.54 1.44-.54 3.31v25.47h-9.68v-25.47q0-4.01-1.62-5.85-1.61-1.83-4.73-1.83-2.11 0-3.92 1.03-1.82 1.04-3.38 2.83v29.29Zm84.28-28.31v17.94q1.64 1.99 3.57 2.8 1.93.82 4.08.82 2.22 0 3.99-.8 1.78-.8 3.03-2.49 1.24-1.7 1.91-4.33.66-2.63.66-6.3 0-6.59-2.18-9.54-2.19-2.94-6.28-2.94-2.77 0-4.84 1.27t-3.94 3.57Zm0-29.64v22.85q2.42-2.53 5.36-4.04 2.95-1.5 6.73-1.5 3.47 0 6.26 1.37 2.79 1.36 4.76 3.92 1.97 2.55 3.02 6.18 1.06 3.62 1.06 8.15 0 4.87-1.21 8.85-1.21 3.98-3.46 6.81-2.24 2.82-5.4 4.39-3.16 1.55-7.02 1.55-1.87 0-3.39-.37t-2.81-1.03q-1.28-.66-2.36-1.62-1.07-.95-2.04-2.12l-.43 2.69q-.24 1.01-.8 1.44-.57.43-1.54.43h-6.36v-57.95h9.63Zm43.14 20.35.58 4.53q1.87-3.59 4.45-5.64 2.57-2.05 6.08-2.05 2.77 0 4.45 1.21l-.63 7.22q-.19.7-.56.99-.37.3-1 .3-.58 0-1.73-.2-1.15-.19-2.24-.19-1.6 0-2.85.46-1.25.47-2.24 1.35-1 .88-1.76 2.12-.76 1.25-1.42 2.85v24.65h-9.64v-40.01h5.66q1.48 0 2.07.52.58.53.78 1.89Zm28.19 12.99h18.18q0-1.87-.53-3.53-.53-1.66-1.58-2.9-1.05-1.25-2.67-1.97-1.62-.72-3.76-.72-4.18 0-6.58 2.37-2.39 2.38-3.06 6.75Zm24.57 5.81h-24.76q.23 3.08 1.09 5.33.86 2.24 2.26 3.7 1.41 1.46 3.34 2.18 1.93.73 4.27.73t4.03-.55q1.7-.55 2.97-1.21 1.27-.66 2.22-1.21.96-.54 1.85-.54 1.21 0 1.8.89l2.77 3.51q-1.6 1.88-3.59 3.14-1.99 1.27-4.16 2.03-2.16.76-4.4 1.07-2.24.31-4.35.31-4.17 0-7.76-1.38t-6.24-4.09q-2.65-2.72-4.17-6.71-1.53-4-1.53-9.26 0-4.1 1.33-7.71 1.33-3.6 3.8-6.28 2.48-2.67 6.05-4.23 3.57-1.56 8.05-1.56 3.78 0 6.98 1.21 3.2 1.21 5.5 3.53t3.61 5.69q1.31 3.38 1.31 7.71 0 2.18-.47 2.94-.47.76-1.8.76Zm37.95-21.21h7.61l-15.88 40.01h-8.73l-15.88-40.01h7.96q1.09 0 1.81.5.72.51.96 1.29l7.72 21.37q.62 1.87 1.09 3.67.47 1.79.82 3.59.39-1.8.86-3.59.47-1.8 1.13-3.67l7.88-21.37q.27-.78.97-1.29.71-.5 1.68-.5Zm20.32 15.4h18.17q0-1.87-.52-3.53-.53-1.66-1.58-2.9-1.06-1.25-2.67-1.97-1.62-.72-3.77-.72-4.17 0-6.57 2.37-2.4 2.38-3.06 6.75Zm24.57 5.81h-24.77q.24 3.08 1.1 5.33.85 2.24 2.26 3.7 1.4 1.46 3.33 2.18 1.93.73 4.27.73t4.04-.55q1.7-.55 2.96-1.21 1.27-.66 2.23-1.21.95-.54 1.85-.54 1.21 0 1.79.89l2.77 3.51q-1.6 1.88-3.59 3.14-1.98 1.27-4.15 2.03-2.16.76-4.41 1.07-2.24.31-4.34.31-4.18 0-7.77-1.38-3.58-1.38-6.24-4.09-2.65-2.72-4.17-6.71-1.52-4-1.52-9.26 0-4.1 1.33-7.71 1.32-3.6 3.8-6.28 2.48-2.67 6.04-4.23 3.57-1.56 8.06-1.56 3.78 0 6.98 1.21 3.2 1.21 5.5 3.53t3.6 5.69q1.31 3.38 1.31 7.71 0 2.18-.47 2.94-.46.76-1.79.76Z"/></svg>